Intrepid reporter Tintin and Captain Haddock set off on a treasure hunt for a sunken ship commanded by Haddock's ancestor.
 
http://www.imdb.com/title/tt0983193/

General
Complete name                            : The Adventures of Tintin 2011 DVDRip  480p x246 200MB - cRcWoRLd.mp4
Format                                   : MPEG-4
Format profile                           : Base Media / Version 2
Codec ID                                 : mp42
File size                                : 201 MiB
Duration                                 : 1h 42mn
Overall bit rate mode                    : Variable
Overall bit rate                         : 274 Kbps
Encoded date                             : UTC 2012-02-26 17:41:22

Video
ID                                       : 1
Format                                   : AVC
Format/Info                              : Advanced Video Codec
Format profile                           : Main@L2.1
Format settings, CABAC                   : Yes
Format settings, ReFrames                : 4 frames
Codec ID                                 : avc1
Codec ID/Info                            : Advanced Video Coding
Duration                                 : 1h 42mn
Bit rate mode                            : Variable
Bit rate                                 : 206 Kbps
Width                                    : 640 pixels
Height                                   : 272 pixels
Display aspect ratio                     : 2.35:1
Frame rate mode                          : Variable
Frame rate                               : 25.000 fps
Minimum frame rate                       : 25.000 fps
Maximum frame rate                       : 62.543 fps
Color space                              : YUV
Chroma subsampling                       : 4:2:0
Bit depth                                : 8 bits
Scan type                                : Progressive
Bits/(Pixel*Frame)                       : 0.047
Stream size                              : 151 MiB (75%)
Writing library                          : x264 core 112

Audio
ID                                       : 2
Format                                   : AAC
Format/Info                              : Advanced Audio Codec
Format profile                           : LC
Codec ID                                 : 40
Duration                                 : 1h 42mn
Bit rate mode                            : Variable
Bit rate                                 : 64.1 Kbps
Maximum bit rate                         : 115 Kbps
Channel(s)                               : 2 channels
Channel positions                        : Front: L R
Sampling rate                            : 48.0 KHz
Compression mode                         : Lossy
Stream size                              : 47.0 MiB (23%)


Sub Title- YES, English
Sample- YES, Try it 1st

SCREEN 
http://img580.imageshack.us/img580/2954/theadventuresoftintin20r.jpg

All My 200MB Rips Are Uploaded for Promotional Purposes Only! If You Like It - Buy It!

BEST For SMARTPHONES/IPAD/IPHONE/ANDROID Devices. For PC Use in VLC & MPC.

The Quality of this movies according to the rip size. plz leave your feed-back at my FB page... I am alwayes there.

NEW Rips will Come SOOOOON.